<svg width="16" height="16" viewBox="0 0 16 16" fill="none" xmlns="http://www.w3.org/2000/svg">
<g clip-path="url(#clip0_91_5549)">
<path d="M4.66667 13.3333H7.33333C7.33333 14.0667 6.73333 14.6667 6 14.6667C5.26667 14.6667 4.66667 14.0667 4.66667 13.3333ZM3.33333 12.6667H8.66667V11.3333H3.33333V12.6667ZM11 6.33333C11 8.88 9.22667 10.24 8.48667 10.6667H3.51333C2.77333 10.24 1 8.88 1 6.33333C1 3.57333 3.24 1.33333 6 1.33333C8.76 1.33333 11 3.57333 11 6.33333ZM9.66667 6.33333C9.66667 4.31333 8.02 2.66667 6 2.66667C3.98 2.66667 2.33333 4.31333 2.33333 6.33333C2.33333 7.98 3.32667 8.92667 3.9 9.33333H8.1C8.67333 8.92667 9.66667 7.98 9.66667 6.33333ZM14.2467 4.91333L13.3333 5.33333L14.2467 5.75333L14.6667 6.66667L15.0867 5.75333L16 5.33333L15.0867 4.91333L14.6667 4L14.2467 4.91333ZM12.6667 4L13.2933 2.62667L14.6667 2L13.2933 1.37333L12.6667 0L12.04 1.37333L10.6667 2L12.04 2.62667L12.6667 4Z" fill="#212121"/>
</g>
<defs>
<clipPath id="clip0_91_5549">
<rect width="16" height="16" fill="white"/>
</clipPath>
</defs>
</svg>
